<svg width="920" height="420" viewBox="0 0 920 420" fill="none" xmlns="http://www.w3.org/2000/svg">
  <rect width="920" height="420" rx="28" fill="#0D1724"/>
  <path d="M0 279C64 279 64 145 128 145C192 145 192 312 256 312C320 312 320 105 384 105C448 105 448 280 512 280C576 280 576 160 640 160C704 160 704 337 768 337C832 337 832 120 896 120" stroke="rgba(246,237,221,0.22)" stroke-width="5"/>
  <path d="M0 308C64 308 64 235 128 235C192 235 192 203 256 203C320 203 320 268 384 268C448 268 448 150 512 150C576 150 576 289 640 289C704 289 704 244 768 244C832 244 832 167 896 167" stroke="#B98C56" stroke-width="3"/>
  <path d="M48 72H876" stroke="rgba(246,237,221,0.08)" stroke-width="2"/>
  <path d="M48 348H876" stroke="rgba(246,237,221,0.08)" stroke-width="2"/>
</svg>
