<svg width="920" height="620" viewBox="0 0 920 620" fill="none" xmlns="http://www.w3.org/2000/svg">
  <rect width="920" height="620" rx="36" fill="#101B28"/>
  <path d="M64 86H856" stroke="rgba(246,237,221,0.08)" stroke-width="2"/>
  <path d="M64 190H856" stroke="rgba(246,237,221,0.08)" stroke-width="2"/>
  <path d="M64 294H856" stroke="rgba(246,237,221,0.08)" stroke-width="2"/>
  <path d="M64 398H856" stroke="rgba(246,237,221,0.08)" stroke-width="2"/>
  <path d="M64 502H856" stroke="rgba(246,237,221,0.08)" stroke-width="2"/>
  <path d="M160 60V560" stroke="rgba(246,237,221,0.08)" stroke-width="2"/>
  <path d="M320 60V560" stroke="rgba(246,237,221,0.08)" stroke-width="2"/>
  <path d="M480 60V560" stroke="rgba(246,237,221,0.08)" stroke-width="2"/>
  <path d="M640 60V560" stroke="rgba(246,237,221,0.08)" stroke-width="2"/>
  <path d="M800 60V560" stroke="rgba(246,237,221,0.08)" stroke-width="2"/>
  <path d="M174 454L302 342L412 377L544 251L676 291L786 198" stroke="#B98C56" stroke-width="4" stroke-linecap="round"/>
  <circle cx="174" cy="454" r="9" fill="#F6EDDD"/>
  <circle cx="302" cy="342" r="9" fill="#F6EDDD"/>
  <circle cx="412" cy="377" r="9" fill="#F6EDDD"/>
  <circle cx="544" cy="251" r="9" fill="#F6EDDD"/>
  <circle cx="676" cy="291" r="9" fill="#F6EDDD"/>
  <circle cx="786" cy="198" r="9" fill="#F6EDDD"/>
</svg>
